<svg width="1200" height="760" viewBox="0 0 1200 760" fill="none" xmlns="http://www.w3.org/2000/svg">
  <rect width="1200" height="760" rx="28" fill="#070B14"/>
  <rect x="28" y="28" width="1144" height="704" rx="22" fill="#0B1220" stroke="#1E293B" stroke-width="2"/>
  <rect x="54" y="54" width="1092" height="64" rx="14" fill="#0F172A"/>
  <circle cx="84" cy="86" r="8" fill="#22D3EE" fill-opacity="0.8"/>
  <circle cx="112" cy="86" r="8" fill="#A78BFA" fill-opacity="0.7"/>
  <rect x="150" y="74" width="220" height="24" rx="8" fill="#1E293B"/>
  <rect x="54" y="142" width="240" height="564" rx="14" fill="#0F172A"/>
  <rect x="316" y="142" width="260" height="564" rx="14" fill="#0F172A"/>
  <rect x="598" y="142" width="260" height="564" rx="14" fill="#0F172A"/>
  <rect x="880" y="142" width="266" height="564" rx="14" fill="#0F172A"/>
  <rect x="74" y="168" width="92" height="18" rx="6" fill="#22D3EE" fill-opacity="0.35"/>
  <rect x="336" y="168" width="92" height="18" rx="6" fill="#22D3EE" fill-opacity="0.35"/>
  <rect x="618" y="168" width="92" height="18" rx="6" fill="#22D3EE" fill-opacity="0.35"/>
  <rect x="900" y="168" width="92" height="18" rx="6" fill="#22D3EE" fill-opacity="0.35"/>
  <rect x="74" y="208" width="200" height="100" rx="10" fill="#111C31"/>
  <rect x="74" y="324" width="200" height="120" rx="10" fill="#111C31"/>
  <rect x="74" y="460" width="200" height="92" rx="10" fill="#111C31"/>
  <rect x="336" y="208" width="220" height="150" rx="10" fill="#111C31"/>
  <rect x="336" y="374" width="220" height="110" rx="10" fill="#111C31"/>
  <rect x="336" y="500" width="220" height="130" rx="10" fill="#111C31"/>
  <rect x="618" y="208" width="220" height="120" rx="10" fill="#111C31"/>
  <rect x="618" y="344" width="220" height="120" rx="10" fill="#111C31"/>
  <rect x="618" y="480" width="220" height="140" rx="10" fill="#111C31"/>
  <rect x="900" y="208" width="226" height="90" rx="10" fill="#111C31"/>
  <rect x="900" y="314" width="226" height="140" rx="10" fill="#111C31"/>
  <rect x="900" y="470" width="226" height="160" rx="10" fill="#111C31"/>
  <rect x="90" y="226" width="140" height="12" rx="4" fill="#334155"/>
  <rect x="90" y="244" width="102" height="10" rx="4" fill="#1E293B"/>
  <rect x="352" y="226" width="160" height="12" rx="4" fill="#334155"/>
  <rect x="352" y="244" width="100" height="10" rx="4" fill="#1E293B"/>
  <rect x="634" y="226" width="150" height="12" rx="4" fill="#334155"/>
  <rect x="634" y="244" width="88" height="10" rx="4" fill="#1E293B"/>
  <rect x="916" y="226" width="160" height="12" rx="4" fill="#334155"/>
  <rect x="916" y="244" width="110" height="10" rx="4" fill="#1E293B"/>
</svg>
